<svg data-v-423bf9ae="" xmlns="http://www.w3.org/2000/svg" viewBox="0 0 484.78717809598646 163" class="iconAbove"><!----><!----><!----><g data-v-423bf9ae="" id="11b080bb-3809-412d-9d87-a87396feb6f8" fill="black" transform="matrix(4.55927038192749,0,0,4.55927038192749,-6.747729301452637,86.13069915771484)"><path d="M1.48 14.08L2.60 14.08L2.60 10.99L5.17 10.99C7.59 10.99 8.99 9.74 8.99 7.57C8.99 5.49 7.59 4.28 5.17 4.28L1.48 4.28ZM2.60 9.91L2.60 5.36L5.12 5.36C6.89 5.36 7.91 6.12 7.91 7.60C7.91 9.13 6.89 9.91 5.12 9.91ZM10.77 14.08L11.86 14.08L11.86 10.46C11.86 8.88 12.78 7.77 14.35 7.76C15.65 7.76 16.44 8.53 16.44 9.83L16.44 14.08L17.53 14.08L17.53 9.53C17.53 7.76 16.49 6.66 14.73 6.66C13.37 6.68 12.36 7.21 11.86 8.36L11.86 3.70L10.77 3.70ZM18.55 16.31C19.00 16.67 19.49 16.86 20.10 16.86C21.08 16.86 21.85 16.27 22.32 15.13L25.70 6.71L24.58 6.71L22.25 12.80L19.80 6.71L18.65 6.71L21.70 14.03L21.39 14.71C21.10 15.40 20.62 15.75 20.05 15.75C19.68 15.75 19.35 15.64 19.01 15.40ZM26.19 7.83L27.26 7.83L27.26 12.04C27.26 13.50 28.06 14.14 29.13 14.14C29.72 14.13 30.28 13.93 30.80 13.58L30.49 12.70C30.09 12.95 29.69 13.08 29.32 13.08C28.69 13.08 28.34 12.74 28.34 11.84L28.34 7.83L30.67 7.83L30.67 6.93L28.34 6.94L28.34 5.00L27.26 5.00L27.26 6.94L26.19 6.94ZM31.71 10.39C31.71 12.60 33.26 14.13 35.45 14.13C37.63 14.13 39.19 12.60 39.19 10.39C39.19 8.19 37.63 6.68 35.45 6.68C33.26 6.68 31.71 8.19 31.71 10.39ZM32.80 10.40C32.80 8.79 33.91 7.67 35.45 7.67C36.99 7.67 38.09 8.79 38.09 10.40C38.09 12.03 36.99 13.15 35.45 13.15C33.91 13.15 32.80 12.03 32.80 10.40ZM40.33 9.17C40.33 11.94 42.57 14.14 45.40 14.14C46.76 14.14 48.08 13.54 49.04 12.63L48.36 11.86C47.59 12.59 46.54 13.03 45.46 13.03C43.25 13.03 41.47 11.31 41.47 9.17C41.47 7.01 43.25 5.31 45.46 5.31C46.54 5.31 47.60 5.77 48.36 6.54L49.03 5.68C48.09 4.80 46.79 4.26 45.44 4.26C42.60 4.26 40.33 6.43 40.33 9.17ZM50.16 10.39C50.16 12.60 51.72 14.13 53.90 14.13C56.08 14.13 57.64 12.60 57.64 10.39C57.64 8.19 56.08 6.68 53.90 6.68C51.72 6.68 50.16 8.19 50.16 10.39ZM51.25 10.40C51.25 8.79 52.36 7.67 53.90 7.67C55.44 7.67 56.55 8.79 56.55 10.40C56.55 12.03 55.44 13.15 53.90 13.15C52.36 13.15 51.25 12.03 51.25 10.40ZM59.56 14.08L60.65 14.08L60.65 10.12C60.77 8.72 61.67 7.77 63.13 7.76C64.43 7.76 65.21 8.53 65.21 9.83L65.21 14.08L66.30 14.08L66.30 9.53C66.30 7.76 65.27 6.66 63.50 6.66C62.16 6.68 61.17 7.21 60.65 8.33L60.65 6.71L59.56 6.71ZM67.94 7.83L69.01 7.83L69.01 12.04C69.01 13.50 69.80 14.14 70.88 14.14C71.47 14.13 72.03 13.93 72.55 13.58L72.24 12.70C71.83 12.95 71.44 13.08 71.06 13.08C70.43 13.08 70.08 12.74 70.08 11.84L70.08 7.83L72.42 7.83L72.42 6.93L70.08 6.94L70.08 5.00L69.01 5.00L69.01 6.94L67.94 6.94ZM74.20 14.08L75.29 14.08L75.29 10.16C75.42 8.71 76.38 7.74 77.94 7.77L77.94 6.66C76.69 6.68 75.78 7.27 75.29 8.34L75.29 6.71L74.20 6.71ZM78.67 10.39C78.67 12.60 80.22 14.13 82.40 14.13C84.59 14.13 86.14 12.60 86.14 10.39C86.14 8.19 84.59 6.68 82.40 6.68C80.22 6.68 78.67 8.19 78.67 10.39ZM79.76 10.40C79.76 8.79 80.86 7.67 82.40 7.67C83.94 7.67 85.05 8.79 85.05 10.40C85.05 12.03 83.94 13.15 82.40 13.15C80.86 13.15 79.76 12.03 79.76 10.40ZM88.13 14.08L89.22 14.08L89.22 3.70L88.13 3.70ZM92.02 14.08L93.11 14.08L93.11 3.70L92.02 3.70ZM95.10 10.40C95.10 12.60 96.60 14.13 98.77 14.13C100.00 14.13 101.04 13.68 101.74 12.89L101.14 12.25C100.56 12.85 99.76 13.17 98.85 13.17C97.43 13.17 96.38 12.26 96.18 10.82L102.20 10.82C102.31 8.32 101.14 6.66 98.76 6.68C96.61 6.68 95.10 8.20 95.10 10.40ZM96.18 9.93C96.35 8.53 97.36 7.62 98.76 7.62C100.20 7.62 101.15 8.51 101.22 9.93ZM104.08 14.08L105.17 14.08L105.17 10.16C105.29 8.71 106.26 7.74 107.81 7.77L107.81 6.66C106.57 6.68 105.66 7.27 105.17 8.34L105.17 6.71L104.08 6.71Z"></path></g><!----><g data-v-423bf9ae="" id="eb216be4-5635-4209-ac83-c1a834dc3bca" transform="matrix(1.1639186143875122,0,0,1.1639186143875122,182.9940948486328,-12.91653823852539)" stroke="none" fill="black"><path d="M61.64 58.881c-7.924 9.351-16.084 9.953-16.044 10.52-2.867-21.792 10.982-37.815 10.982-37.815a48.485 48.485 0 0 0-7.229 9.104l.224-.371c-3.369-2.856-5.174-11.592-5.174-11.592.793 10.315 3.651 14.212 3.651 14.212.256-.487.697-1.241 1.041-1.817-2.927 4.887-4.749 9.935-5.813 14.842l.075-.386c-1.904-5.694-8.476-10.188-8.476-10.188 5.237 5.395 7.674 14.616 7.674 14.616.026-.203.082-.541.15-.936-2.529 16.138 2.583 29.947 2.583 29.947h7.432c-3.517-5.776-5.59-11.39-6.639-16.701.099.438.17.688.17.688 8.251-3.809 15.393-14.123 15.393-14.123z"></path><path d="M51.316 59.684s-3.159-22.583 36.616-22.119c0 0-4.555 34.476-28.624 31.875 0 0 8.829-7.395 8.829-15.872.001 0-6.787-2.617-16.821 6.116zM34.543 51.682S16.482 55.426 14.752 23.3c0 0 28.069 1.85 27.243 21.414 0 0-6.435-6.733-13.277-6.285.001 0-1.753 5.618 5.825 13.253zM51.258 31.022S48.15 17.144 72.903 15.416c0 0-1.084 21.666-16.18 21.27 0 0 5.112-5.046 4.684-10.315-.001-.001-4.354-1.285-10.149 4.651z"></path><path d="M41.5 31.083s-9.766-3.453-1.254-19.391c0 0 12.947 9.051 6.862 18.211 0 0-1.134-5.105-4.552-6.881 0 0-2.476 2.19-1.056 8.061z"></path></g><!----></svg>